<svg width="16" height="16" viewBox="0 0 16 16" fill="none" xmlns="http://www.w3.org/2000/svg">
<path fill-rule="evenodd" clip-rule="evenodd" d="M8.13333 0C8.50152 0 8.8 0.298477 8.8 0.666667V1.46667C8.8 1.83486 8.50152 2.13333 8.13333 2.13333C7.76514 2.13333 7.46667 1.83486 7.46667 1.46667V0.666667C7.46667 0.298477 7.76514 0 8.13333 0ZM8 11.4667C9.91459 11.4667 11.4667 9.91459 11.4667 8C11.4667 6.08541 9.91459 4.53333 8 4.53333C6.08541 4.53333 4.53333 6.08541 4.53333 8C4.53333 9.91459 6.08541 11.4667 8 11.4667ZM8 12.8C10.651 12.8 12.8 10.651 12.8 8C12.8 5.34903 10.651 3.2 8 3.2C5.34903 3.2 3.2 5.34903 3.2 8C3.2 10.651 5.34903 12.8 8 12.8ZM8.8 14.5333C8.8 14.1651 8.50152 13.8667 8.13333 13.8667C7.76514 13.8667 7.46667 14.1651 7.46667 14.5333V15.3333C7.46667 15.7015 7.76514 16 8.13333 16C8.50152 16 8.8 15.7015 8.8 15.3333V14.5333ZM13.5949 2.81455C13.8553 3.0749 13.8553 3.49701 13.5949 3.75736L13.0292 4.32305C12.7689 4.5834 12.3468 4.5834 12.0864 4.32305C11.8261 4.0627 11.8261 3.64059 12.0864 3.38024L12.6521 2.81455C12.9124 2.5542 13.3346 2.5542 13.5949 2.81455ZM4.1132 13.1475C4.37355 12.8872 4.37355 12.4651 4.1132 12.2047C3.85285 11.9444 3.43074 11.9444 3.17039 12.2047L2.60471 12.7704C2.34436 13.0308 2.34436 13.4529 2.60471 13.7132C2.86506 13.9736 3.28717 13.9736 3.54752 13.7132L4.1132 13.1475ZM16 8.66667C16 9.03486 15.7015 9.33333 15.3333 9.33333H14.5333C14.1651 9.33333 13.8667 9.03486 13.8667 8.66667C13.8667 8.29848 14.1651 8 14.5333 8H15.3333C15.7015 8 16 8.29848 16 8.66667ZM1.46667 9.33333C1.83486 9.33333 2.13333 9.03486 2.13333 8.66667C2.13333 8.29848 1.83486 8 1.46667 8H0.666667C0.298477 8 0 8.29848 0 8.66667C0 9.03486 0.298477 9.33333 0.666667 9.33333H1.46667ZM13.3037 13.7132C13.0434 13.9736 12.6213 13.9736 12.3609 13.7132L11.7952 13.1475C11.5349 12.8872 11.5349 12.4651 11.7952 12.2047C12.0556 11.9444 12.4777 11.9444 12.738 12.2047L13.3037 12.7704C13.5641 13.0308 13.5641 13.4529 13.3037 13.7132ZM2.76092 4.32302C3.02127 4.58337 3.44338 4.58337 3.70373 4.32302C3.96408 4.06267 3.96408 3.64056 3.70373 3.38022L3.13804 2.81453C2.87769 2.55418 2.45558 2.55418 2.19523 2.81453C1.93488 3.07488 1.93488 3.49699 2.19523 3.75734L2.76092 4.32302Z" fill="#1E202C"/>
</svg>
