<svg width="52" height="52" viewBox="0 0 52 52" fill="none" xmlns="http://www.w3.org/2000/svg">
<path d="M26 10C17.1739 10 10 17.198 10 26.1007C10 28.6253 10.576 31.0087 11.6009 33.13C12.0813 34.1246 11.6646 35.3204 10.67 35.8009C9.67541 36.2813 8.47963 35.8646 7.99914 34.87C6.7176 32.2173 6 29.2402 6 26.1007C6 15.0099 14.9438 6 26 6C37.0562 6 46 15.0099 46 26.1007C46 29.2402 45.2824 32.2173 44.0009 34.87C43.5204 35.8646 42.3246 36.2813 41.33 35.8009C40.3354 35.3204 39.9187 34.1246 40.3991 33.13C41.424 31.0087 42 28.6253 42 26.1007C42 17.198 34.8261 10 26 10Z" fill="#7E51FF"/>
<path fill-rule="evenodd" clip-rule="evenodd" d="M31.023 34.6488C33.9993 32.9165 36 29.6919 36 26C36 20.4772 31.5228 16 26 16C20.4772 16 16 20.4772 16 26C16 29.6919 18.0007 32.9165 20.977 34.6488C17.9157 35.4784 15.5737 36.9899 13.875 38.5093C12.6194 39.6323 11.7174 40.7559 11.1247 41.6066C10.8275 42.0331 10.6058 42.3943 10.4541 42.6575C10.3782 42.7892 10.3196 42.8967 10.2777 42.976C10.2568 43.0156 10.24 43.0483 10.2273 43.0734L10.2112 43.1053L10.2055 43.1169L10.2032 43.1217L10.2022 43.1237C10.2017 43.1247 10.2013 43.1256 12 44L10.2013 43.1256C9.71835 44.119 10.1322 45.3158 11.1256 45.7987C12.1163 46.2803 13.3093 45.87 13.7948 44.8825L13.7959 44.8801L13.8146 44.8443C13.8346 44.8064 13.8695 44.742 13.9196 44.655C14.0201 44.4807 14.1811 44.2169 14.4066 43.8934C14.859 43.2441 15.5612 42.3677 16.5417 41.4907C18.4834 39.754 21.5255 38 26 38C30.4745 38 33.5166 39.754 35.4583 41.4907C36.4388 42.3677 37.141 43.2441 37.5934 43.8934C37.8189 44.2169 37.9799 44.4807 38.0804 44.655C38.1306 44.742 38.1654 44.8064 38.1854 44.8443L38.2041 44.8801L38.2052 44.8824C38.6906 45.87 39.8837 46.2803 40.8744 45.7987C41.8678 45.3158 42.2816 44.119 41.7987 43.1256L40 44C41.7987 43.1256 41.7983 43.1247 41.7978 43.1237L41.7945 43.1169L41.7888 43.1053L41.7727 43.0734C41.76 43.0483 41.7432 43.0156 41.7223 42.976C41.6804 42.8967 41.6218 42.7892 41.5459 42.6575C41.3942 42.3943 41.1725 42.0331 40.8753 41.6066C40.2826 40.7559 39.3806 39.6323 38.125 38.5093C36.4263 36.9899 34.0843 35.4784 31.023 34.6488ZM26 32C29.3137 32 32 29.3137 32 26C32 22.6863 29.3137 20 26 20C22.6863 20 20 22.6863 20 26C20 29.3137 22.6863 32 26 32Z" fill="#7E51FF"/>
</svg>
