<svg width="52" height="52" viewBox="0 0 52 52" fill="none" xmlns="http://www.w3.org/2000/svg">
<path fill-rule="evenodd" clip-rule="evenodd" d="M14 18C17.3137 18 20 15.3137 20 12C20 8.68629 17.3137 6 14 6C10.6863 6 8 8.68629 8 12C8 15.3137 10.6863 18 14 18ZM14 14C15.1046 14 16 13.1046 16 12C16 10.8954 15.1046 10 14 10C12.8954 10 12 10.8954 12 12C12 13.1046 12.8954 14 14 14Z" fill="#FF4869"/>
<path fill-rule="evenodd" clip-rule="evenodd" d="M32.3414 28C33.1651 30.3304 35.3876 32 38 32C41.3137 32 44 29.3137 44 26C44 22.6863 41.3137 20 38 20C35.3876 20 33.1651 21.6696 32.3414 24H10C8.89543 24 8 24.8954 8 26C8 27.1046 8.89543 28 10 28H32.3414ZM38 28C39.1046 28 40 27.1046 40 26C40 24.8954 39.1046 24 38 24C36.8954 24 36 24.8954 36 26C36 27.1046 36.8954 28 38 28Z" fill="#FF4869"/>
<path fill-rule="evenodd" clip-rule="evenodd" d="M24 46C21.3876 46 19.1651 44.3304 18.3414 42H10C8.89543 42 8 41.1046 8 40C8 38.8954 8.89543 38 10 38H18.3414C19.1651 35.6696 21.3876 34 24 34C27.3137 34 30 36.6863 30 40C30 43.3137 27.3137 46 24 46ZM26 40C26 41.1046 25.1046 42 24 42C22.8954 42 22 41.1046 22 40C22 38.8954 22.8954 38 24 38C25.1046 38 26 38.8954 26 40Z" fill="#FF4869"/>
<path d="M24 12C24 10.8954 24.8954 10 26 10L42 10C43.1046 10 44 10.8954 44 12C44 13.1046 43.1046 14 42 14L26 14C24.8954 14 24 13.1046 24 12Z" fill="#FF4869"/>
<path d="M36 38C34.8954 38 34 38.8954 34 40C34 41.1046 34.8954 42 36 42H42C43.1046 42 44 41.1046 44 40C44 38.8954 43.1046 38 42 38H36Z" fill="#FF4869"/>
</svg>
