<svg width="52" height="52" viewBox="0 0 52 52" fill="none" xmlns="http://www.w3.org/2000/svg">
<path d="M28 16C28 14.8954 27.1046 14 26 14C24.8954 14 24 14.8954 24 16V26C24 27.1046 24.8954 28 26 28H34C35.1046 28 36 27.1046 36 26C36 24.8954 35.1046 24 34 24H28V16Z" fill="#2BC128"/>
<path fill-rule="evenodd" clip-rule="evenodd" d="M46 26C46 37.0457 37.0457 46 26 46C14.9543 46 6 37.0457 6 26C6 14.9543 14.9543 6 26 6C37.0457 6 46 14.9543 46 26ZM42 26C42 34.8366 34.8366 42 26 42C17.1634 42 10 34.8366 10 26C10 17.1634 17.1634 10 26 10C34.8366 10 42 17.1634 42 26Z" fill="#2BC128"/>
</svg>
