<svg width="52" height="52" viewBox="0 0 52 52" fill="none" xmlns="http://www.w3.org/2000/svg">
<path fill-rule="evenodd" clip-rule="evenodd" d="M8.40535 27.2488C8.04946 26.7456 7.75895 26.3086 7.53722 25.9631C7.7397 25.6236 8.00438 25.1971 8.32989 24.7075C9.19877 23.4005 10.4889 21.6616 12.1719 19.9294C15.5665 16.4354 20.3579 13.1667 26.375 13.1667C32.3765 13.1667 36.9724 16.4204 40.1688 19.8931C41.756 21.6175 42.9524 23.3492 43.7516 24.6516C44.0689 25.1687 44.3217 25.615 44.5097 25.9621C44.3026 26.3148 44.0238 26.7713 43.6758 27.3016C42.8159 28.612 41.5457 30.3539 39.9048 32.0884C36.5828 35.6 31.9843 38.8333 26.375 38.8333C20.7488 38.8333 15.9564 35.5836 12.4362 32.0535C10.6995 30.3118 9.33534 28.5634 8.40535 27.2488ZM48.3342 25.2463C48.3345 25.247 48.3349 25.2477 46.625 26L48.3014 26.8211L48.3006 26.8227L48.2984 26.8269L48.292 26.8393L48.2709 26.8798C48.2531 26.9136 48.228 26.9611 48.1955 27.0211C48.1306 27.1413 48.0363 27.3123 47.9133 27.5269C47.6673 27.9557 47.3055 28.5602 46.832 29.2818C45.8872 30.7214 44.4855 32.6461 42.6577 34.5782C39.0422 38.4 33.5157 42.5 26.375 42.5C19.2512 42.5 13.5436 38.4164 9.75125 34.6132C7.83172 32.6882 6.33654 30.7699 5.32121 29.3346C4.81237 28.6152 4.42099 28.0129 4.15421 27.5857C4.02075 27.3721 3.91827 27.2019 3.84766 27.0825C3.81235 27.0229 3.78499 26.9758 3.7657 26.9424L3.74281 26.9024L3.73593 26.8903L3.7321 26.8835L5.375 26C3.69795 25.1801 3.69827 25.1795 3.69863 25.1788L3.69948 25.1771L3.7017 25.1728L3.70824 25.1601L3.72967 25.1192C3.74766 25.085 3.77306 25.0372 3.80583 24.9767C3.87135 24.8559 3.96641 24.6841 4.09068 24.4688C4.33906 24.0384 4.70496 23.4324 5.18573 22.7092C6.14498 21.2662 7.57365 19.3384 9.45313 17.404C13.1835 13.5646 18.8921 9.5 26.375 9.5C33.8735 9.5 39.4026 13.5796 42.9562 17.4402C44.744 19.3825 46.0788 21.3174 46.9672 22.7651C47.4125 23.4908 47.7486 24.099 47.976 24.5313C48.0898 24.7476 48.1765 24.9202 48.2363 25.0419C48.2661 25.1028 48.2893 25.151 48.3057 25.1856L48.3253 25.2271L48.3313 25.2401L48.3334 25.2445L48.3342 25.2463ZM3.7321 26.8835C3.43519 26.3557 3.42242 25.7189 3.69795 25.1801L5.375 26C3.7435 26.8774 3.73183 26.8829 3.73209 26.8835L3.7321 26.8835ZM48.3014 26.8211C48.5533 26.3285 48.566 25.75 48.3349 25.2477L46.625 26C48.3021 26.8199 48.3017 26.8205 48.3014 26.8211ZM31.625 26C31.625 28.8351 29.2745 31.1333 26.375 31.1333C23.4755 31.1333 21.125 28.8351 21.125 26C21.125 23.1649 23.4755 20.8667 26.375 20.8667C29.2745 20.8667 31.625 23.1649 31.625 26ZM35.375 26C35.375 30.8601 31.3456 34.8 26.375 34.8C21.4044 34.8 17.375 30.8601 17.375 26C17.375 21.1399 21.4044 17.2 26.375 17.2C31.3456 17.2 35.375 21.1399 35.375 26Z" fill="#17CFC4"/>
</svg>
