<svg width="16" height="16" viewBox="0 0 16 16" fill="none" xmlns="http://www.w3.org/2000/svg">
<path fill-rule="evenodd" clip-rule="evenodd" d="M8.60842 0.282496L8 0.833333L7.39158 0.282496C7.54551 0.102904 7.76713 0 8 0C8.23287 0 8.45449 0.102904 8.60842 0.282496ZM8 2.12336C7.94236 2.19513 7.88148 2.27138 7.81776 2.35177C7.33886 2.95582 6.70207 3.7893 6.06698 4.71054C5.42982 5.63478 4.80572 6.63105 4.34414 7.56261C3.86895 8.52163 3.62162 9.30415 3.62162 9.83333C3.62162 12.3186 5.58189 14.3333 8 14.3333C10.4181 14.3333 12.3784 12.3186 12.3784 9.83333C12.3784 9.30415 12.1311 8.52163 11.6559 7.56261C11.1943 6.63105 10.5702 5.63478 9.93302 4.71054C9.29793 3.7893 8.66114 2.95582 8.18224 2.35177C8.11851 2.27138 8.05764 2.19513 8 2.12336ZM8 0.833333C7.39158 0.282496 7.39158 0.282496 7.39158 0.282496L7.3868 0.288092L7.37462 0.302382L7.32905 0.356212C7.28956 0.403039 7.23224 0.4714 7.15964 0.559051C7.01447 0.73431 6.808 0.986944 6.56062 1.29897C6.06655 1.92218 5.40604 2.78641 4.74383 3.74699C4.08369 4.70456 3.4105 5.77419 2.89911 6.80628C2.40132 7.81089 2 8.88976 2 9.83333C2 13.2391 4.68629 16 8 16C11.3137 16 14 13.2391 14 9.83333C14 8.88976 13.5987 7.81089 13.1009 6.80628C12.5895 5.77419 11.9163 4.70456 11.2562 3.74699C10.594 2.78641 9.93345 1.92218 9.43938 1.29897C9.192 0.986944 8.98553 0.73431 8.84036 0.559051C8.76776 0.4714 8.71044 0.403039 8.67095 0.356212L8.62538 0.302382L8.6132 0.288092L8.60987 0.284194L8.60891 0.283069C8.60891 0.283069 8.60842 0.282496 8 0.833333Z" fill="url(#paint0_angular)"/>
<defs>
<radialGradient id="paint0_angular" cx="0" cy="0" r="1" gradientUnits="userSpaceOnUse" gradientTransform="translate(8 8) rotate(90) scale(8 6)">
<stop stop-color="#4ED138"/>
<stop offset="0.322917" stop-color="#C362FF"/>
<stop offset="0.520833" stop-color="#53A1FF"/>
<stop offset="0.75" stop-color="#FF69A8"/>
<stop offset="0.984375" stop-color="#4DD32B"/>
</radialGradient>
</defs>
</svg>
