<svg width="24" height="25" viewBox="0 0 24 25" fill="none" xmlns="http://www.w3.org/2000/svg">
<rect y="0.5" width="24" height="24" rx="12" fill="#F0F2F6"/>
<path d="M12.6154 9.42308C12.6154 9.08321 12.3399 8.80769 12 8.80769C11.6602 8.80769 11.3847 9.08321 11.3847 9.42308V12.5C11.3847 12.8399 11.6602 13.1154 12 13.1154H14.4616C14.8014 13.1154 15.077 12.8399 15.077 12.5C15.077 12.1601 14.8014 11.8846 14.4616 11.8846H12.6154V9.42308Z" fill="#737992"/>
<path fill-rule="evenodd" clip-rule="evenodd" d="M18.1539 12.5C18.1539 15.8987 15.3987 18.6538 12 18.6538C8.60136 18.6538 5.84619 15.8987 5.84619 12.5C5.84619 9.10132 8.60136 6.34615 12 6.34615C15.3987 6.34615 18.1539 9.10132 18.1539 12.5ZM16.9231 12.5C16.9231 15.2189 14.719 17.4231 12 17.4231C9.2811 17.4231 7.07696 15.2189 7.07696 12.5C7.07696 9.78106 9.2811 7.57692 12 7.57692C14.719 7.57692 16.9231 9.78106 16.9231 12.5Z" fill="#737992"/>
</svg>
