<svg width="32" height="32" viewBox="0 0 32 32" fill="none" xmlns="http://www.w3.org/2000/svg">
<path fill-rule="evenodd" clip-rule="evenodd" d="M16 5.25C10.0629 5.25 5.25 10.0629 5.25 16C5.25 21.9371 10.0629 26.75 16 26.75C21.9371 26.75 26.75 21.9371 26.75 16C26.75 10.0629 21.9371 5.25 16 5.25ZM2.75 16C2.75 8.68223 8.68223 2.75 16 2.75C23.3178 2.75 29.25 8.68223 29.25 16C29.25 23.3178 23.3178 29.25 16 29.25C8.68223 29.25 2.75 23.3178 2.75 16Z" fill="white"/>
<path fill-rule="evenodd" clip-rule="evenodd" d="M10.1161 10.1161C10.4547 9.77755 10.9569 9.66213 11.4093 9.81891L18.8357 12.3925C19.1976 12.5179 19.4821 12.8024 19.6075 13.1643L22.1811 20.5907C22.3379 21.0431 22.2224 21.5453 21.8839 21.8839C21.5453 22.2224 21.0431 22.3379 20.5907 22.1811L13.1643 19.6075C12.8024 19.4821 12.5179 19.1976 12.3925 18.8357L9.81891 11.4093C9.66213 10.9569 9.77755 10.4547 10.1161 10.1161ZM14.5561 17.4439L18.9755 18.9755L17.4439 14.5561L13.0245 13.0245L14.5561 17.4439Z" fill="white"/>
</svg>
