<svg width="52" height="52" viewBox="0 0 52 52" fill="none" xmlns="http://www.w3.org/2000/svg">
<rect width="52" height="52" rx="26" fill="#F2EDFF"/>
<path fill-rule="evenodd" clip-rule="evenodd" d="M26.5415 14.1149C26.1967 13.9617 25.8032 13.9617 25.4584 14.1149L13.4584 19.4483C12.9769 19.6623 12.6666 20.1397 12.6666 20.6667C12.6666 21.1936 12.9769 21.6711 13.4584 21.8851L16.717 23.3333L13.4584 24.7816C12.9769 24.9956 12.6666 25.4731 12.6666 26C12.6666 26.5269 12.9769 27.0044 13.4584 27.2184L16.717 28.6667L13.4584 30.1149C12.9769 30.3289 12.6666 30.8064 12.6666 31.3333C12.6666 31.8603 12.9769 32.3377 13.4584 32.5517L25.4584 37.8851C25.8032 38.0383 26.1967 38.0383 26.5415 37.8851L38.5415 32.5517C39.023 32.3377 39.3333 31.8603 39.3333 31.3333C39.3333 30.8064 39.023 30.3289 38.5415 30.1149L35.2829 28.6667L38.5415 27.2184C39.023 27.0044 39.3333 26.5269 39.3333 26C39.3333 25.4731 39.023 24.9956 38.5415 24.7816L35.2829 23.3333L38.5415 21.8851C39.023 21.6711 39.3333 21.1936 39.3333 20.6667C39.3333 20.1397 39.023 19.6623 38.5415 19.4483L26.5415 14.1149ZM32 24.7924L26.5415 27.2184C26.1967 27.3716 25.8032 27.3716 25.4584 27.2184L20 24.7924L17.2829 26L26 29.8742L34.717 26L32 24.7924ZM26 24.5409L17.2829 20.6667L26 16.7924L34.717 20.6667L26 24.5409ZM26.5415 32.5517L32 30.1258L34.717 31.3333L26 35.2076L17.2829 31.3333L20 30.1258L25.4584 32.5517C25.8032 32.705 26.1967 32.705 26.5415 32.5517Z" fill="#1E202C"/>
</svg>
