<svg width="52" height="52" viewBox="0 0 52 52" fill="none" xmlns="http://www.w3.org/2000/svg">
<rect width="52" height="52" rx="26" fill="#F0F2F6"/>
<path fill-rule="evenodd" clip-rule="evenodd" d="M38 26C37.2556 26.3722 36.3882 26.7136 35.451 26.9707C32.6112 27.75 29.1316 27.7556 26.5 25.5C23.7866 23.1742 24.0783 19.6464 25.0454 16.5474C25.3258 15.649 25.6629 14.7866 26 14C25.0241 14 24.0754 14.1165 23.167 14.3364C17.9068 15.6095 14 20.3485 14 26C14 32.6274 19.3726 38 26 38C31.6353 38 36.3634 34.1155 37.6526 28.8781C37.8796 27.9561 38 26.9921 38 26ZM34.7555 29.693C33.3145 33.1053 29.9369 35.5 26 35.5C20.7533 35.5 16.5 31.2467 16.5 26C16.5 22.0814 18.8725 18.7169 22.2595 17.2647C22.0693 18.0836 21.9314 18.9316 21.8796 19.7863C21.7232 22.3658 22.3528 25.238 24.873 27.3981C27.2123 29.4032 30.0005 30.0125 32.5132 29.9364C33.2777 29.9132 34.0295 29.8269 34.7555 29.693Z" fill="#1E202C"/>
</svg>
