<svg width="32" height="32" viewBox="0 0 32 32" fill="none" xmlns="http://www.w3.org/2000/svg">
<path fill-rule="evenodd" clip-rule="evenodd" d="M12.3201 4H19.9999C22.3847 4 24.32 5.93525 24.32 8.32003C24.32 9.99123 23.3696 11.4416 21.9802 12.16C23.3696 12.8783 24.32 14.3288 24.32 16C24.32 18.3848 22.3847 20.32 19.9999 20.32C18.6434 20.32 17.4323 19.6938 16.6401 18.7149V23.68C16.6401 26.0648 14.7048 28 12.3201 28C9.93527 28 8 26.0648 8 23.68C8 22.0088 8.95039 20.5583 10.3399 19.84C8.95039 19.1216 8 17.6712 8 16C8 14.3288 8.95038 12.8783 10.3398 12.16C8.95038 11.4416 8 9.99123 8 8.32003C8 5.93525 9.93527 4 12.3201 4ZM8.96 8.32003C8.96 6.46545 10.4655 4.96 12.3201 4.96H15.6799V11.6799H12.3201L12.3096 11.68C10.4598 11.6743 8.96 10.1711 8.96 8.32003ZM15.6801 15.9543C15.68 15.9695 15.6799 15.9847 15.6799 16C15.6799 16.0152 15.68 16.0304 15.6801 16.0457V19.3599H12.32C10.4655 19.36 8.96 17.8546 8.96 16C8.96 14.1488 10.4599 12.6455 12.3097 12.64L12.3201 12.64H15.6799L15.6801 15.9543ZM16.6401 16.0402V15.9597C16.6617 14.1282 18.1513 12.6473 19.9862 12.64H19.9999C20.0034 12.64 20.0068 12.64 20.0103 12.64C21.8601 12.6455 23.36 14.1488 23.36 16C23.36 17.8546 21.8545 19.36 19.9999 19.36C18.1588 19.36 16.6617 17.8763 16.6401 16.0402ZM17.2853 12.64C17.0482 12.8317 16.8319 13.0481 16.6401 13.2851V12.64H17.2853ZM20.0104 11.68C20.0069 11.6799 20.0034 11.6799 19.9999 11.6799C19.9947 11.6799 19.9894 11.6799 19.9842 11.68H16.6401V4.96H19.9999C21.8545 4.96 23.36 6.46545 23.36 8.32003C23.36 10.1711 21.8602 11.6743 20.0104 11.68ZM12.3201 20.3199C10.4655 20.3199 8.96 21.8254 8.96 23.68C8.96 25.5345 10.4655 27.04 12.3201 27.04C14.1747 27.04 15.6801 25.5345 15.6801 23.68V20.3199H12.3201Z" fill="#1E202C" stroke="#1E202C" stroke-width="1.5"/>
</svg>
