<svg width="254" height="381" viewBox="0 0 254 381" fill="none" xmlns="http://www.w3.org/2000/svg">
<path d="M63.5127 381C98.5577 381 127 352.552 127 317.5V254H63.5127C28.4677 254 0.0253906 282.448 0.0253906 317.5C0.0253906 352.552 28.4677 381 63.5127 381Z" fill="#0ACF83"/>
<path d="M0.0253906 190.5C0.0253906 155.448 28.4677 127 63.5127 127H127V254H63.5127C28.4677 254 0.0253906 225.552 0.0253906 190.5Z" fill="#A259FF"/>
<path d="M0.0258789 63.5C0.0258789 28.448 28.4682 0 63.5132 0H127V127H63.5132C28.4682 127 0.0258789 98.552 0.0258789 63.5Z" fill="#F24E1E"/>
<path d="M127 0H190.487C225.532 0 253.975 28.448 253.975 63.5C253.975 98.552 225.532 127 190.487 127H127V0Z" fill="#FF7262"/>
<path d="M253.975 190.5C253.975 225.552 225.532 254 190.487 254C155.442 254 127 225.552 127 190.5C127 155.448 155.442 127 190.487 127C225.532 127 253.975 155.448 253.975 190.5Z" fill="#1ABCFE"/>
</svg>
