<svg width="686" height="398" viewBox="0 0 686 398" fill="none" xmlns="http://www.w3.org/2000/svg">
<path d="M1 2C1.55228 2 2 1.55228 2 1C2 0.447715 1.55228 0 1 0C0.447715 0 0 0.447715 0 1C0 1.55228 0.447715 2 1 2Z" fill="#A6ACC4"/>
<path d="M1 146C1.55228 146 2 145.552 2 145C2 144.448 1.55228 144 1 144C0.447715 144 0 144.448 0 145C0 145.552 0.447715 146 1 146Z" fill="#A6ACC4"/>
<path d="M1 290C1.55228 290 2 289.552 2 289C2 288.448 1.55228 288 1 288C0.447715 288 0 288.448 0 289C0 289.552 0.447715 290 1 290Z" fill="#A6ACC4"/>
<path d="M361 2C361.552 2 362 1.55228 362 1C362 0.447715 361.552 0 361 0C360.448 0 360 0.447715 360 1C360 1.55228 360.448 2 361 2Z" fill="#A6ACC4"/>
<path d="M361 146C361.552 146 362 145.552 362 145C362 144.448 361.552 144 361 144C360.448 144 360 144.448 360 145C360 145.552 360.448 146 361 146Z" fill="#A6ACC4"/>
<path d="M361 290C361.552 290 362 289.552 362 289C362 288.448 361.552 288 361 288C360.448 288 360 288.448 360 289C360 289.552 360.448 290 361 290Z" fill="#A6ACC4"/>
<path d="M37 2C37.5523 2 38 1.55228 38 1C38 0.447715 37.5523 0 37 0C36.4477 0 36 0.447715 36 1C36 1.55228 36.4477 2 37 2Z" fill="#A6ACC4"/>
<path d="M37 146C37.5523 146 38 145.552 38 145C38 144.448 37.5523 144 37 144C36.4477 144 36 144.448 36 145C36 145.552 36.4477 146 37 146Z" fill="#A6ACC4"/>
<path d="M37 290C37.5523 290 38 289.552 38 289C38 288.448 37.5523 288 37 288C36.4477 288 36 288.448 36 289C36 289.552 36.4477 290 37 290Z" fill="#A6ACC4"/>
<path d="M397 2C397.552 2 398 1.55228 398 1C398 0.447715 397.552 0 397 0C396.448 0 396 0.447715 396 1C396 1.55228 396.448 2 397 2Z" fill="#A6ACC4"/>
<path d="M397 146C397.552 146 398 145.552 398 145C398 144.448 397.552 144 397 144C396.448 144 396 144.448 396 145C396 145.552 396.448 146 397 146Z" fill="#A6ACC4"/>
<path d="M397 290C397.552 290 398 289.552 398 289C398 288.448 397.552 288 397 288C396.448 288 396 288.448 396 289C396 289.552 396.448 290 397 290Z" fill="#A6ACC4"/>
<path d="M1 38C1.55228 38 2 37.5523 2 37C2 36.4477 1.55228 36 1 36C0.447715 36 0 36.4477 0 37C0 37.5523 0.447715 38 1 38Z" fill="#A6ACC4"/>
<path d="M1 182C1.55228 182 2 181.552 2 181C2 180.448 1.55228 180 1 180C0.447715 180 0 180.448 0 181C0 181.552 0.447715 182 1 182Z" fill="#A6ACC4"/>
<path d="M1 326C1.55228 326 2 325.552 2 325C2 324.448 1.55228 324 1 324C0.447715 324 0 324.448 0 325C0 325.552 0.447715 326 1 326Z" fill="#A6ACC4"/>
<path d="M361 38C361.552 38 362 37.5523 362 37C362 36.4477 361.552 36 361 36C360.448 36 360 36.4477 360 37C360 37.5523 360.448 38 361 38Z" fill="#A6ACC4"/>
<path d="M361 182C361.552 182 362 181.552 362 181C362 180.448 361.552 180 361 180C360.448 180 360 180.448 360 181C360 181.552 360.448 182 361 182Z" fill="#A6ACC4"/>
<path d="M361 326C361.552 326 362 325.552 362 325C362 324.448 361.552 324 361 324C360.448 324 360 324.448 360 325C360 325.552 360.448 326 361 326Z" fill="#A6ACC4"/>
<path d="M73 2C73.5523 2 74 1.55228 74 1C74 0.447715 73.5523 0 73 0C72.4477 0 72 0.447715 72 1C72 1.55228 72.4477 2 73 2Z" fill="#A6ACC4"/>
<path d="M73 146C73.5523 146 74 145.552 74 145C74 144.448 73.5523 144 73 144C72.4477 144 72 144.448 72 145C72 145.552 72.4477 146 73 146Z" fill="#A6ACC4"/>
<path d="M73 290C73.5523 290 74 289.552 74 289C74 288.448 73.5523 288 73 288C72.4477 288 72 288.448 72 289C72 289.552 72.4477 290 73 290Z" fill="#A6ACC4"/>
<path d="M433 2C433.552 2 434 1.55228 434 1C434 0.447715 433.552 0 433 0C432.448 0 432 0.447715 432 1C432 1.55228 432.448 2 433 2Z" fill="#A6ACC4"/>
<path d="M433 146C433.552 146 434 145.552 434 145C434 144.448 433.552 144 433 144C432.448 144 432 144.448 432 145C432 145.552 432.448 146 433 146Z" fill="#A6ACC4"/>
<path d="M433 290C433.552 290 434 289.552 434 289C434 288.448 433.552 288 433 288C432.448 288 432 288.448 432 289C432 289.552 432.448 290 433 290Z" fill="#A6ACC4"/>
<path d="M109 2C109.552 2 110 1.55228 110 1C110 0.447715 109.552 0 109 0C108.448 0 108 0.447715 108 1C108 1.55228 108.448 2 109 2Z" fill="#A6ACC4"/>
<path d="M109 146C109.552 146 110 145.552 110 145C110 144.448 109.552 144 109 144C108.448 144 108 144.448 108 145C108 145.552 108.448 146 109 146Z" fill="#A6ACC4"/>
<path d="M109 290C109.552 290 110 289.552 110 289C110 288.448 109.552 288 109 288C108.448 288 108 288.448 108 289C108 289.552 108.448 290 109 290Z" fill="#A6ACC4"/>
<path d="M469 2C469.552 2 470 1.55228 470 1C470 0.447715 469.552 0 469 0C468.448 0 468 0.447715 468 1C468 1.55228 468.448 2 469 2Z" fill="#A6ACC4"/>
<path d="M469 146C469.552 146 470 145.552 470 145C470 144.448 469.552 144 469 144C468.448 144 468 144.448 468 145C468 145.552 468.448 146 469 146Z" fill="#A6ACC4"/>
<path d="M469 290C469.552 290 470 289.552 470 289C470 288.448 469.552 288 469 288C468.448 288 468 288.448 468 289C468 289.552 468.448 290 469 290Z" fill="#A6ACC4"/>
<path d="M37 38C37.5523 38 38 37.5523 38 37C38 36.4477 37.5523 36 37 36C36.4477 36 36 36.4477 36 37C36 37.5523 36.4477 38 37 38Z" fill="#A6ACC4"/>
<path d="M37 182C37.5523 182 38 181.552 38 181C38 180.448 37.5523 180 37 180C36.4477 180 36 180.448 36 181C36 181.552 36.4477 182 37 182Z" fill="#A6ACC4"/>
<path d="M37 326C37.5523 326 38 325.552 38 325C38 324.448 37.5523 324 37 324C36.4477 324 36 324.448 36 325C36 325.552 36.4477 326 37 326Z" fill="#A6ACC4"/>
<path d="M397 38C397.552 38 398 37.5523 398 37C398 36.4477 397.552 36 397 36C396.448 36 396 36.4477 396 37C396 37.5523 396.448 38 397 38Z" fill="#A6ACC4"/>
<path d="M397 182C397.552 182 398 181.552 398 181C398 180.448 397.552 180 397 180C396.448 180 396 180.448 396 181C396 181.552 396.448 182 397 182Z" fill="#A6ACC4"/>
<path d="M397 326C397.552 326 398 325.552 398 325C398 324.448 397.552 324 397 324C396.448 324 396 324.448 396 325C396 325.552 396.448 326 397 326Z" fill="#A6ACC4"/>
<path d="M145 2C145.552 2 146 1.55228 146 1C146 0.447715 145.552 0 145 0C144.448 0 144 0.447715 144 1C144 1.55228 144.448 2 145 2Z" fill="#A6ACC4"/>
<path d="M145 146C145.552 146 146 145.552 146 145C146 144.448 145.552 144 145 144C144.448 144 144 144.448 144 145C144 145.552 144.448 146 145 146Z" fill="#A6ACC4"/>
<path d="M145 290C145.552 290 146 289.552 146 289C146 288.448 145.552 288 145 288C144.448 288 144 288.448 144 289C144 289.552 144.448 290 145 290Z" fill="#A6ACC4"/>
<path d="M505 2C505.552 2 506 1.55228 506 1C506 0.447715 505.552 0 505 0C504.448 0 504 0.447715 504 1C504 1.55228 504.448 2 505 2Z" fill="#A6ACC4"/>
<path d="M505 146C505.552 146 506 145.552 506 145C506 144.448 505.552 144 505 144C504.448 144 504 144.448 504 145C504 145.552 504.448 146 505 146Z" fill="#A6ACC4"/>
<path d="M505 290C505.552 290 506 289.552 506 289C506 288.448 505.552 288 505 288C504.448 288 504 288.448 504 289C504 289.552 504.448 290 505 290Z" fill="#A6ACC4"/>
<path d="M181 2C181.552 2 182 1.55228 182 1C182 0.447715 181.552 0 181 0C180.448 0 180 0.447715 180 1C180 1.55228 180.448 2 181 2Z" fill="#A6ACC4"/>
<path d="M181 146C181.552 146 182 145.552 182 145C182 144.448 181.552 144 181 144C180.448 144 180 144.448 180 145C180 145.552 180.448 146 181 146Z" fill="#A6ACC4"/>
<path d="M181 290C181.552 290 182 289.552 182 289C182 288.448 181.552 288 181 288C180.448 288 180 288.448 180 289C180 289.552 180.448 290 181 290Z" fill="#A6ACC4"/>
<path d="M541 2C541.552 2 542 1.55228 542 1C542 0.447715 541.552 0 541 0C540.448 0 540 0.447715 540 1C540 1.55228 540.448 2 541 2Z" fill="#A6ACC4"/>
<path d="M541 146C541.552 146 542 145.552 542 145C542 144.448 541.552 144 541 144C540.448 144 540 144.448 540 145C540 145.552 540.448 146 541 146Z" fill="#A6ACC4"/>
<path d="M541 290C541.552 290 542 289.552 542 289C542 288.448 541.552 288 541 288C540.448 288 540 288.448 540 289C540 289.552 540.448 290 541 290Z" fill="#A6ACC4"/>
<path d="M73 38C73.5523 38 74 37.5523 74 37C74 36.4477 73.5523 36 73 36C72.4477 36 72 36.4477 72 37C72 37.5523 72.4477 38 73 38Z" fill="#A6ACC4"/>
<path d="M73 182C73.5523 182 74 181.552 74 181C74 180.448 73.5523 180 73 180C72.4477 180 72 180.448 72 181C72 181.552 72.4477 182 73 182Z" fill="#A6ACC4"/>
<path d="M73 326C73.5523 326 74 325.552 74 325C74 324.448 73.5523 324 73 324C72.4477 324 72 324.448 72 325C72 325.552 72.4477 326 73 326Z" fill="#A6ACC4"/>
<path d="M433 38C433.552 38 434 37.5523 434 37C434 36.4477 433.552 36 433 36C432.448 36 432 36.4477 432 37C432 37.5523 432.448 38 433 38Z" fill="#A6ACC4"/>
<path d="M433 182C433.552 182 434 181.552 434 181C434 180.448 433.552 180 433 180C432.448 180 432 180.448 432 181C432 181.552 432.448 182 433 182Z" fill="#A6ACC4"/>
<path d="M433 326C433.552 326 434 325.552 434 325C434 324.448 433.552 324 433 324C432.448 324 432 324.448 432 325C432 325.552 432.448 326 433 326Z" fill="#A6ACC4"/>
<path d="M217 2C217.552 2 218 1.55228 218 1C218 0.447715 217.552 0 217 0C216.448 0 216 0.447715 216 1C216 1.55228 216.448 2 217 2Z" fill="#A6ACC4"/>
<path d="M217 146C217.552 146 218 145.552 218 145C218 144.448 217.552 144 217 144C216.448 144 216 144.448 216 145C216 145.552 216.448 146 217 146Z" fill="#A6ACC4"/>
<path d="M217 290C217.552 290 218 289.552 218 289C218 288.448 217.552 288 217 288C216.448 288 216 288.448 216 289C216 289.552 216.448 290 217 290Z" fill="#A6ACC4"/>
<path d="M577 2C577.552 2 578 1.55228 578 1C578 0.447715 577.552 0 577 0C576.448 0 576 0.447715 576 1C576 1.55228 576.448 2 577 2Z" fill="#A6ACC4"/>
<path d="M577 146C577.552 146 578 145.552 578 145C578 144.448 577.552 144 577 144C576.448 144 576 144.448 576 145C576 145.552 576.448 146 577 146Z" fill="#A6ACC4"/>
<path d="M577 290C577.552 290 578 289.552 578 289C578 288.448 577.552 288 577 288C576.448 288 576 288.448 576 289C576 289.552 576.448 290 577 290Z" fill="#A6ACC4"/>
<path d="M253 2C253.552 2 254 1.55228 254 1C254 0.447715 253.552 0 253 0C252.448 0 252 0.447715 252 1C252 1.55228 252.448 2 253 2Z" fill="#A6ACC4"/>
<path d="M253 146C253.552 146 254 145.552 254 145C254 144.448 253.552 144 253 144C252.448 144 252 144.448 252 145C252 145.552 252.448 146 253 146Z" fill="#A6ACC4"/>
<path d="M253 290C253.552 290 254 289.552 254 289C254 288.448 253.552 288 253 288C252.448 288 252 288.448 252 289C252 289.552 252.448 290 253 290Z" fill="#A6ACC4"/>
<path d="M613 2C613.552 2 614 1.55228 614 1C614 0.447715 613.552 0 613 0C612.448 0 612 0.447715 612 1C612 1.55228 612.448 2 613 2Z" fill="#A6ACC4"/>
<path d="M613 146C613.552 146 614 145.552 614 145C614 144.448 613.552 144 613 144C612.448 144 612 144.448 612 145C612 145.552 612.448 146 613 146Z" fill="#A6ACC4"/>
<path d="M613 290C613.552 290 614 289.552 614 289C614 288.448 613.552 288 613 288C612.448 288 612 288.448 612 289C612 289.552 612.448 290 613 290Z" fill="#A6ACC4"/>
<path d="M109 38C109.552 38 110 37.5523 110 37C110 36.4477 109.552 36 109 36C108.448 36 108 36.4477 108 37C108 37.5523 108.448 38 109 38Z" fill="#A6ACC4"/>
<path d="M109 182C109.552 182 110 181.552 110 181C110 180.448 109.552 180 109 180C108.448 180 108 180.448 108 181C108 181.552 108.448 182 109 182Z" fill="#A6ACC4"/>
<path d="M109 326C109.552 326 110 325.552 110 325C110 324.448 109.552 324 109 324C108.448 324 108 324.448 108 325C108 325.552 108.448 326 109 326Z" fill="#A6ACC4"/>
<path d="M469 38C469.552 38 470 37.5523 470 37C470 36.4477 469.552 36 469 36C468.448 36 468 36.4477 468 37C468 37.5523 468.448 38 469 38Z" fill="#A6ACC4"/>
<path d="M469 182C469.552 182 470 181.552 470 181C470 180.448 469.552 180 469 180C468.448 180 468 180.448 468 181C468 181.552 468.448 182 469 182Z" fill="#A6ACC4"/>
<path d="M469 326C469.552 326 470 325.552 470 325C470 324.448 469.552 324 469 324C468.448 324 468 324.448 468 325C468 325.552 468.448 326 469 326Z" fill="#A6ACC4"/>
<path d="M289 2C289.552 2 290 1.55228 290 1C290 0.447715 289.552 0 289 0C288.448 0 288 0.447715 288 1C288 1.55228 288.448 2 289 2Z" fill="#A6ACC4"/>
<path d="M289 146C289.552 146 290 145.552 290 145C290 144.448 289.552 144 289 144C288.448 144 288 144.448 288 145C288 145.552 288.448 146 289 146Z" fill="#A6ACC4"/>
<path d="M289 290C289.552 290 290 289.552 290 289C290 288.448 289.552 288 289 288C288.448 288 288 288.448 288 289C288 289.552 288.448 290 289 290Z" fill="#A6ACC4"/>
<path d="M649 2C649.552 2 650 1.55228 650 1C650 0.447715 649.552 0 649 0C648.448 0 648 0.447715 648 1C648 1.55228 648.448 2 649 2Z" fill="#A6ACC4"/>
<path d="M649 146C649.552 146 650 145.552 650 145C650 144.448 649.552 144 649 144C648.448 144 648 144.448 648 145C648 145.552 648.448 146 649 146Z" fill="#A6ACC4"/>
<path d="M649 290C649.552 290 650 289.552 650 289C650 288.448 649.552 288 649 288C648.448 288 648 288.448 648 289C648 289.552 648.448 290 649 290Z" fill="#A6ACC4"/>
<path d="M325 2C325.552 2 326 1.55228 326 1C326 0.447715 325.552 0 325 0C324.448 0 324 0.447715 324 1C324 1.55228 324.448 2 325 2Z" fill="#A6ACC4"/>
<path d="M325 146C325.552 146 326 145.552 326 145C326 144.448 325.552 144 325 144C324.448 144 324 144.448 324 145C324 145.552 324.448 146 325 146Z" fill="#A6ACC4"/>
<path d="M325 290C325.552 290 326 289.552 326 289C326 288.448 325.552 288 325 288C324.448 288 324 288.448 324 289C324 289.552 324.448 290 325 290Z" fill="#A6ACC4"/>
<path d="M685 2C685.552 2 686 1.55228 686 1C686 0.447715 685.552 0 685 0C684.448 0 684 0.447715 684 1C684 1.55228 684.448 2 685 2Z" fill="#A6ACC4"/>
<path d="M685 146C685.552 146 686 145.552 686 145C686 144.448 685.552 144 685 144C684.448 144 684 144.448 684 145C684 145.552 684.448 146 685 146Z" fill="#A6ACC4"/>
<path d="M685 290C685.552 290 686 289.552 686 289C686 288.448 685.552 288 685 288C684.448 288 684 288.448 684 289C684 289.552 684.448 290 685 290Z" fill="#A6ACC4"/>
<path d="M145 38C145.552 38 146 37.5523 146 37C146 36.4477 145.552 36 145 36C144.448 36 144 36.4477 144 37C144 37.5523 144.448 38 145 38Z" fill="#A6ACC4"/>
<path d="M145 182C145.552 182 146 181.552 146 181C146 180.448 145.552 180 145 180C144.448 180 144 180.448 144 181C144 181.552 144.448 182 145 182Z" fill="#A6ACC4"/>
<path d="M145 326C145.552 326 146 325.552 146 325C146 324.448 145.552 324 145 324C144.448 324 144 324.448 144 325C144 325.552 144.448 326 145 326Z" fill="#A6ACC4"/>
<path d="M505 38C505.552 38 506 37.5523 506 37C506 36.4477 505.552 36 505 36C504.448 36 504 36.4477 504 37C504 37.5523 504.448 38 505 38Z" fill="#A6ACC4"/>
<path d="M505 182C505.552 182 506 181.552 506 181C506 180.448 505.552 180 505 180C504.448 180 504 180.448 504 181C504 181.552 504.448 182 505 182Z" fill="#A6ACC4"/>
<path d="M505 326C505.552 326 506 325.552 506 325C506 324.448 505.552 324 505 324C504.448 324 504 324.448 504 325C504 325.552 504.448 326 505 326Z" fill="#A6ACC4"/>
<path d="M181 38C181.552 38 182 37.5523 182 37C182 36.4477 181.552 36 181 36C180.448 36 180 36.4477 180 37C180 37.5523 180.448 38 181 38Z" fill="#A6ACC4"/>
<path d="M181 182C181.552 182 182 181.552 182 181C182 180.448 181.552 180 181 180C180.448 180 180 180.448 180 181C180 181.552 180.448 182 181 182Z" fill="#A6ACC4"/>
<path d="M181 326C181.552 326 182 325.552 182 325C182 324.448 181.552 324 181 324C180.448 324 180 324.448 180 325C180 325.552 180.448 326 181 326Z" fill="#A6ACC4"/>
<path d="M541 38C541.552 38 542 37.5523 542 37C542 36.4477 541.552 36 541 36C540.448 36 540 36.4477 540 37C540 37.5523 540.448 38 541 38Z" fill="#A6ACC4"/>
<path d="M541 182C541.552 182 542 181.552 542 181C542 180.448 541.552 180 541 180C540.448 180 540 180.448 540 181C540 181.552 540.448 182 541 182Z" fill="#A6ACC4"/>
<path d="M541 326C541.552 326 542 325.552 542 325C542 324.448 541.552 324 541 324C540.448 324 540 324.448 540 325C540 325.552 540.448 326 541 326Z" fill="#A6ACC4"/>
<path d="M217 38C217.552 38 218 37.5523 218 37C218 36.4477 217.552 36 217 36C216.448 36 216 36.4477 216 37C216 37.5523 216.448 38 217 38Z" fill="#A6ACC4"/>
<path d="M217 182C217.552 182 218 181.552 218 181C218 180.448 217.552 180 217 180C216.448 180 216 180.448 216 181C216 181.552 216.448 182 217 182Z" fill="#A6ACC4"/>
<path d="M217 326C217.552 326 218 325.552 218 325C218 324.448 217.552 324 217 324C216.448 324 216 324.448 216 325C216 325.552 216.448 326 217 326Z" fill="#A6ACC4"/>
<path d="M577 38C577.552 38 578 37.5523 578 37C578 36.4477 577.552 36 577 36C576.448 36 576 36.4477 576 37C576 37.5523 576.448 38 577 38Z" fill="#A6ACC4"/>
<path d="M577 182C577.552 182 578 181.552 578 181C578 180.448 577.552 180 577 180C576.448 180 576 180.448 576 181C576 181.552 576.448 182 577 182Z" fill="#A6ACC4"/>
<path d="M577 326C577.552 326 578 325.552 578 325C578 324.448 577.552 324 577 324C576.448 324 576 324.448 576 325C576 325.552 576.448 326 577 326Z" fill="#A6ACC4"/>
<path d="M253 38C253.552 38 254 37.5523 254 37C254 36.4477 253.552 36 253 36C252.448 36 252 36.4477 252 37C252 37.5523 252.448 38 253 38Z" fill="#A6ACC4"/>
<path d="M253 182C253.552 182 254 181.552 254 181C254 180.448 253.552 180 253 180C252.448 180 252 180.448 252 181C252 181.552 252.448 182 253 182Z" fill="#A6ACC4"/>
<path d="M253 326C253.552 326 254 325.552 254 325C254 324.448 253.552 324 253 324C252.448 324 252 324.448 252 325C252 325.552 252.448 326 253 326Z" fill="#A6ACC4"/>
<path d="M613 38C613.552 38 614 37.5523 614 37C614 36.4477 613.552 36 613 36C612.448 36 612 36.4477 612 37C612 37.5523 612.448 38 613 38Z" fill="#A6ACC4"/>
<path d="M613 182C613.552 182 614 181.552 614 181C614 180.448 613.552 180 613 180C612.448 180 612 180.448 612 181C612 181.552 612.448 182 613 182Z" fill="#A6ACC4"/>
<path d="M613 326C613.552 326 614 325.552 614 325C614 324.448 613.552 324 613 324C612.448 324 612 324.448 612 325C612 325.552 612.448 326 613 326Z" fill="#A6ACC4"/>
<path d="M289 38C289.552 38 290 37.5523 290 37C290 36.4477 289.552 36 289 36C288.448 36 288 36.4477 288 37C288 37.5523 288.448 38 289 38Z" fill="#A6ACC4"/>
<path d="M289 182C289.552 182 290 181.552 290 181C290 180.448 289.552 180 289 180C288.448 180 288 180.448 288 181C288 181.552 288.448 182 289 182Z" fill="#A6ACC4"/>
<path d="M289 326C289.552 326 290 325.552 290 325C290 324.448 289.552 324 289 324C288.448 324 288 324.448 288 325C288 325.552 288.448 326 289 326Z" fill="#A6ACC4"/>
<path d="M649 38C649.552 38 650 37.5523 650 37C650 36.4477 649.552 36 649 36C648.448 36 648 36.4477 648 37C648 37.5523 648.448 38 649 38Z" fill="#A6ACC4"/>
<path d="M649 182C649.552 182 650 181.552 650 181C650 180.448 649.552 180 649 180C648.448 180 648 180.448 648 181C648 181.552 648.448 182 649 182Z" fill="#A6ACC4"/>
<path d="M649 326C649.552 326 650 325.552 650 325C650 324.448 649.552 324 649 324C648.448 324 648 324.448 648 325C648 325.552 648.448 326 649 326Z" fill="#A6ACC4"/>
<path d="M325 38C325.552 38 326 37.5523 326 37C326 36.4477 325.552 36 325 36C324.448 36 324 36.4477 324 37C324 37.5523 324.448 38 325 38Z" fill="#A6ACC4"/>
<path d="M325 182C325.552 182 326 181.552 326 181C326 180.448 325.552 180 325 180C324.448 180 324 180.448 324 181C324 181.552 324.448 182 325 182Z" fill="#A6ACC4"/>
<path d="M325 326C325.552 326 326 325.552 326 325C326 324.448 325.552 324 325 324C324.448 324 324 324.448 324 325C324 325.552 324.448 326 325 326Z" fill="#A6ACC4"/>
<path d="M685 38C685.552 38 686 37.5523 686 37C686 36.4477 685.552 36 685 36C684.448 36 684 36.4477 684 37C684 37.5523 684.448 38 685 38Z" fill="#A6ACC4"/>
<path d="M685 182C685.552 182 686 181.552 686 181C686 180.448 685.552 180 685 180C684.448 180 684 180.448 684 181C684 181.552 684.448 182 685 182Z" fill="#A6ACC4"/>
<path d="M685 326C685.552 326 686 325.552 686 325C686 324.448 685.552 324 685 324C684.448 324 684 324.448 684 325C684 325.552 684.448 326 685 326Z" fill="#A6ACC4"/>
<path d="M1 74C1.55228 74 2 73.5523 2 73C2 72.4477 1.55228 72 1 72C0.447715 72 0 72.4477 0 73C0 73.5523 0.447715 74 1 74Z" fill="#A6ACC4"/>
<path d="M1 218C1.55228 218 2 217.552 2 217C2 216.448 1.55228 216 1 216C0.447715 216 0 216.448 0 217C0 217.552 0.447715 218 1 218Z" fill="#A6ACC4"/>
<path d="M1 362C1.55228 362 2 361.552 2 361C2 360.448 1.55228 360 1 360C0.447715 360 0 360.448 0 361C0 361.552 0.447715 362 1 362Z" fill="#A6ACC4"/>
<path d="M361 74C361.552 74 362 73.5523 362 73C362 72.4477 361.552 72 361 72C360.448 72 360 72.4477 360 73C360 73.5523 360.448 74 361 74Z" fill="#A6ACC4"/>
<path d="M361 218C361.552 218 362 217.552 362 217C362 216.448 361.552 216 361 216C360.448 216 360 216.448 360 217C360 217.552 360.448 218 361 218Z" fill="#A6ACC4"/>
<path d="M361 362C361.552 362 362 361.552 362 361C362 360.448 361.552 360 361 360C360.448 360 360 360.448 360 361C360 361.552 360.448 362 361 362Z" fill="#A6ACC4"/>
<path d="M37 74C37.5523 74 38 73.5523 38 73C38 72.4477 37.5523 72 37 72C36.4477 72 36 72.4477 36 73C36 73.5523 36.4477 74 37 74Z" fill="#A6ACC4"/>
<path d="M37 218C37.5523 218 38 217.552 38 217C38 216.448 37.5523 216 37 216C36.4477 216 36 216.448 36 217C36 217.552 36.4477 218 37 218Z" fill="#A6ACC4"/>
<path d="M37 362C37.5523 362 38 361.552 38 361C38 360.448 37.5523 360 37 360C36.4477 360 36 360.448 36 361C36 361.552 36.4477 362 37 362Z" fill="#A6ACC4"/>
<path d="M397 74C397.552 74 398 73.5523 398 73C398 72.4477 397.552 72 397 72C396.448 72 396 72.4477 396 73C396 73.5523 396.448 74 397 74Z" fill="#A6ACC4"/>
<path d="M397 218C397.552 218 398 217.552 398 217C398 216.448 397.552 216 397 216C396.448 216 396 216.448 396 217C396 217.552 396.448 218 397 218Z" fill="#A6ACC4"/>
<path d="M397 362C397.552 362 398 361.552 398 361C398 360.448 397.552 360 397 360C396.448 360 396 360.448 396 361C396 361.552 396.448 362 397 362Z" fill="#A6ACC4"/>
<path d="M1 110C1.55228 110 2 109.552 2 109C2 108.448 1.55228 108 1 108C0.447715 108 0 108.448 0 109C0 109.552 0.447715 110 1 110Z" fill="#A6ACC4"/>
<path d="M1 254C1.55228 254 2 253.552 2 253C2 252.448 1.55228 252 1 252C0.447715 252 0 252.448 0 253C0 253.552 0.447715 254 1 254Z" fill="#A6ACC4"/>
<path d="M1 398C1.55228 398 2 397.552 2 397C2 396.448 1.55228 396 1 396C0.447715 396 0 396.448 0 397C0 397.552 0.447715 398 1 398Z" fill="#A6ACC4"/>
<path d="M361 110C361.552 110 362 109.552 362 109C362 108.448 361.552 108 361 108C360.448 108 360 108.448 360 109C360 109.552 360.448 110 361 110Z" fill="#A6ACC4"/>
<path d="M361 254C361.552 254 362 253.552 362 253C362 252.448 361.552 252 361 252C360.448 252 360 252.448 360 253C360 253.552 360.448 254 361 254Z" fill="#A6ACC4"/>
<path d="M361 398C361.552 398 362 397.552 362 397C362 396.448 361.552 396 361 396C360.448 396 360 396.448 360 397C360 397.552 360.448 398 361 398Z" fill="#A6ACC4"/>
<path d="M73 74C73.5523 74 74 73.5523 74 73C74 72.4477 73.5523 72 73 72C72.4477 72 72 72.4477 72 73C72 73.5523 72.4477 74 73 74Z" fill="#A6ACC4"/>
<path d="M73 218C73.5523 218 74 217.552 74 217C74 216.448 73.5523 216 73 216C72.4477 216 72 216.448 72 217C72 217.552 72.4477 218 73 218Z" fill="#A6ACC4"/>
<path d="M73 362C73.5523 362 74 361.552 74 361C74 360.448 73.5523 360 73 360C72.4477 360 72 360.448 72 361C72 361.552 72.4477 362 73 362Z" fill="#A6ACC4"/>
<path d="M433 74C433.552 74 434 73.5523 434 73C434 72.4477 433.552 72 433 72C432.448 72 432 72.4477 432 73C432 73.5523 432.448 74 433 74Z" fill="#A6ACC4"/>
<path d="M433 218C433.552 218 434 217.552 434 217C434 216.448 433.552 216 433 216C432.448 216 432 216.448 432 217C432 217.552 432.448 218 433 218Z" fill="#A6ACC4"/>
<path d="M433 362C433.552 362 434 361.552 434 361C434 360.448 433.552 360 433 360C432.448 360 432 360.448 432 361C432 361.552 432.448 362 433 362Z" fill="#A6ACC4"/>
<path d="M109 74C109.552 74 110 73.5523 110 73C110 72.4477 109.552 72 109 72C108.448 72 108 72.4477 108 73C108 73.5523 108.448 74 109 74Z" fill="#A6ACC4"/>
<path d="M109 218C109.552 218 110 217.552 110 217C110 216.448 109.552 216 109 216C108.448 216 108 216.448 108 217C108 217.552 108.448 218 109 218Z" fill="#A6ACC4"/>
<path d="M109 362C109.552 362 110 361.552 110 361C110 360.448 109.552 360 109 360C108.448 360 108 360.448 108 361C108 361.552 108.448 362 109 362Z" fill="#A6ACC4"/>
<path d="M469 74C469.552 74 470 73.5523 470 73C470 72.4477 469.552 72 469 72C468.448 72 468 72.4477 468 73C468 73.5523 468.448 74 469 74Z" fill="#A6ACC4"/>
<path d="M469 218C469.552 218 470 217.552 470 217C470 216.448 469.552 216 469 216C468.448 216 468 216.448 468 217C468 217.552 468.448 218 469 218Z" fill="#A6ACC4"/>
<path d="M469 362C469.552 362 470 361.552 470 361C470 360.448 469.552 360 469 360C468.448 360 468 360.448 468 361C468 361.552 468.448 362 469 362Z" fill="#A6ACC4"/>
<path d="M37 110C37.5523 110 38 109.552 38 109C38 108.448 37.5523 108 37 108C36.4477 108 36 108.448 36 109C36 109.552 36.4477 110 37 110Z" fill="#A6ACC4"/>
<path d="M37 254C37.5523 254 38 253.552 38 253C38 252.448 37.5523 252 37 252C36.4477 252 36 252.448 36 253C36 253.552 36.4477 254 37 254Z" fill="#A6ACC4"/>
<path d="M37 398C37.5523 398 38 397.552 38 397C38 396.448 37.5523 396 37 396C36.4477 396 36 396.448 36 397C36 397.552 36.4477 398 37 398Z" fill="#A6ACC4"/>
<path d="M397 110C397.552 110 398 109.552 398 109C398 108.448 397.552 108 397 108C396.448 108 396 108.448 396 109C396 109.552 396.448 110 397 110Z" fill="#A6ACC4"/>
<path d="M397 254C397.552 254 398 253.552 398 253C398 252.448 397.552 252 397 252C396.448 252 396 252.448 396 253C396 253.552 396.448 254 397 254Z" fill="#A6ACC4"/>
<path d="M397 398C397.552 398 398 397.552 398 397C398 396.448 397.552 396 397 396C396.448 396 396 396.448 396 397C396 397.552 396.448 398 397 398Z" fill="#A6ACC4"/>
<path d="M145 74C145.552 74 146 73.5523 146 73C146 72.4477 145.552 72 145 72C144.448 72 144 72.4477 144 73C144 73.5523 144.448 74 145 74Z" fill="#A6ACC4"/>
<path d="M145 218C145.552 218 146 217.552 146 217C146 216.448 145.552 216 145 216C144.448 216 144 216.448 144 217C144 217.552 144.448 218 145 218Z" fill="#A6ACC4"/>
<path d="M145 362C145.552 362 146 361.552 146 361C146 360.448 145.552 360 145 360C144.448 360 144 360.448 144 361C144 361.552 144.448 362 145 362Z" fill="#A6ACC4"/>
<path d="M505 74C505.552 74 506 73.5523 506 73C506 72.4477 505.552 72 505 72C504.448 72 504 72.4477 504 73C504 73.5523 504.448 74 505 74Z" fill="#A6ACC4"/>
<path d="M505 218C505.552 218 506 217.552 506 217C506 216.448 505.552 216 505 216C504.448 216 504 216.448 504 217C504 217.552 504.448 218 505 218Z" fill="#A6ACC4"/>
<path d="M505 362C505.552 362 506 361.552 506 361C506 360.448 505.552 360 505 360C504.448 360 504 360.448 504 361C504 361.552 504.448 362 505 362Z" fill="#A6ACC4"/>
<path d="M181 74C181.552 74 182 73.5523 182 73C182 72.4477 181.552 72 181 72C180.448 72 180 72.4477 180 73C180 73.5523 180.448 74 181 74Z" fill="#A6ACC4"/>
<path d="M181 218C181.552 218 182 217.552 182 217C182 216.448 181.552 216 181 216C180.448 216 180 216.448 180 217C180 217.552 180.448 218 181 218Z" fill="#A6ACC4"/>
<path d="M181 362C181.552 362 182 361.552 182 361C182 360.448 181.552 360 181 360C180.448 360 180 360.448 180 361C180 361.552 180.448 362 181 362Z" fill="#A6ACC4"/>
<path d="M541 74C541.552 74 542 73.5523 542 73C542 72.4477 541.552 72 541 72C540.448 72 540 72.4477 540 73C540 73.5523 540.448 74 541 74Z" fill="#A6ACC4"/>
<path d="M541 218C541.552 218 542 217.552 542 217C542 216.448 541.552 216 541 216C540.448 216 540 216.448 540 217C540 217.552 540.448 218 541 218Z" fill="#A6ACC4"/>
<path d="M541 362C541.552 362 542 361.552 542 361C542 360.448 541.552 360 541 360C540.448 360 540 360.448 540 361C540 361.552 540.448 362 541 362Z" fill="#A6ACC4"/>
<path d="M73 110C73.5523 110 74 109.552 74 109C74 108.448 73.5523 108 73 108C72.4477 108 72 108.448 72 109C72 109.552 72.4477 110 73 110Z" fill="#A6ACC4"/>
<path d="M73 254C73.5523 254 74 253.552 74 253C74 252.448 73.5523 252 73 252C72.4477 252 72 252.448 72 253C72 253.552 72.4477 254 73 254Z" fill="#A6ACC4"/>
<path d="M73 398C73.5523 398 74 397.552 74 397C74 396.448 73.5523 396 73 396C72.4477 396 72 396.448 72 397C72 397.552 72.4477 398 73 398Z" fill="#A6ACC4"/>
<path d="M433 110C433.552 110 434 109.552 434 109C434 108.448 433.552 108 433 108C432.448 108 432 108.448 432 109C432 109.552 432.448 110 433 110Z" fill="#A6ACC4"/>
<path d="M433 254C433.552 254 434 253.552 434 253C434 252.448 433.552 252 433 252C432.448 252 432 252.448 432 253C432 253.552 432.448 254 433 254Z" fill="#A6ACC4"/>
<path d="M433 398C433.552 398 434 397.552 434 397C434 396.448 433.552 396 433 396C432.448 396 432 396.448 432 397C432 397.552 432.448 398 433 398Z" fill="#A6ACC4"/>
<path d="M217 74C217.552 74 218 73.5523 218 73C218 72.4477 217.552 72 217 72C216.448 72 216 72.4477 216 73C216 73.5523 216.448 74 217 74Z" fill="#A6ACC4"/>
<path d="M217 218C217.552 218 218 217.552 218 217C218 216.448 217.552 216 217 216C216.448 216 216 216.448 216 217C216 217.552 216.448 218 217 218Z" fill="#A6ACC4"/>
<path d="M217 362C217.552 362 218 361.552 218 361C218 360.448 217.552 360 217 360C216.448 360 216 360.448 216 361C216 361.552 216.448 362 217 362Z" fill="#A6ACC4"/>
<path d="M577 74C577.552 74 578 73.5523 578 73C578 72.4477 577.552 72 577 72C576.448 72 576 72.4477 576 73C576 73.5523 576.448 74 577 74Z" fill="#A6ACC4"/>
<path d="M577 218C577.552 218 578 217.552 578 217C578 216.448 577.552 216 577 216C576.448 216 576 216.448 576 217C576 217.552 576.448 218 577 218Z" fill="#A6ACC4"/>
<path d="M577 362C577.552 362 578 361.552 578 361C578 360.448 577.552 360 577 360C576.448 360 576 360.448 576 361C576 361.552 576.448 362 577 362Z" fill="#A6ACC4"/>
<path d="M253 74C253.552 74 254 73.5523 254 73C254 72.4477 253.552 72 253 72C252.448 72 252 72.4477 252 73C252 73.5523 252.448 74 253 74Z" fill="#A6ACC4"/>
<path d="M253 218C253.552 218 254 217.552 254 217C254 216.448 253.552 216 253 216C252.448 216 252 216.448 252 217C252 217.552 252.448 218 253 218Z" fill="#A6ACC4"/>
<path d="M253 362C253.552 362 254 361.552 254 361C254 360.448 253.552 360 253 360C252.448 360 252 360.448 252 361C252 361.552 252.448 362 253 362Z" fill="#A6ACC4"/>
<path d="M613 74C613.552 74 614 73.5523 614 73C614 72.4477 613.552 72 613 72C612.448 72 612 72.4477 612 73C612 73.5523 612.448 74 613 74Z" fill="#A6ACC4"/>
<path d="M613 218C613.552 218 614 217.552 614 217C614 216.448 613.552 216 613 216C612.448 216 612 216.448 612 217C612 217.552 612.448 218 613 218Z" fill="#A6ACC4"/>
<path d="M613 362C613.552 362 614 361.552 614 361C614 360.448 613.552 360 613 360C612.448 360 612 360.448 612 361C612 361.552 612.448 362 613 362Z" fill="#A6ACC4"/>
<path d="M109 110C109.552 110 110 109.552 110 109C110 108.448 109.552 108 109 108C108.448 108 108 108.448 108 109C108 109.552 108.448 110 109 110Z" fill="#A6ACC4"/>
<path d="M109 254C109.552 254 110 253.552 110 253C110 252.448 109.552 252 109 252C108.448 252 108 252.448 108 253C108 253.552 108.448 254 109 254Z" fill="#A6ACC4"/>
<path d="M109 398C109.552 398 110 397.552 110 397C110 396.448 109.552 396 109 396C108.448 396 108 396.448 108 397C108 397.552 108.448 398 109 398Z" fill="#A6ACC4"/>
<path d="M469 110C469.552 110 470 109.552 470 109C470 108.448 469.552 108 469 108C468.448 108 468 108.448 468 109C468 109.552 468.448 110 469 110Z" fill="#A6ACC4"/>
<path d="M469 254C469.552 254 470 253.552 470 253C470 252.448 469.552 252 469 252C468.448 252 468 252.448 468 253C468 253.552 468.448 254 469 254Z" fill="#A6ACC4"/>
<path d="M469 398C469.552 398 470 397.552 470 397C470 396.448 469.552 396 469 396C468.448 396 468 396.448 468 397C468 397.552 468.448 398 469 398Z" fill="#A6ACC4"/>
<path d="M289 74C289.552 74 290 73.5523 290 73C290 72.4477 289.552 72 289 72C288.448 72 288 72.4477 288 73C288 73.5523 288.448 74 289 74Z" fill="#A6ACC4"/>
<path d="M289 218C289.552 218 290 217.552 290 217C290 216.448 289.552 216 289 216C288.448 216 288 216.448 288 217C288 217.552 288.448 218 289 218Z" fill="#A6ACC4"/>
<path d="M289 362C289.552 362 290 361.552 290 361C290 360.448 289.552 360 289 360C288.448 360 288 360.448 288 361C288 361.552 288.448 362 289 362Z" fill="#A6ACC4"/>
<path d="M649 74C649.552 74 650 73.5523 650 73C650 72.4477 649.552 72 649 72C648.448 72 648 72.4477 648 73C648 73.5523 648.448 74 649 74Z" fill="#A6ACC4"/>
<path d="M649 218C649.552 218 650 217.552 650 217C650 216.448 649.552 216 649 216C648.448 216 648 216.448 648 217C648 217.552 648.448 218 649 218Z" fill="#A6ACC4"/>
<path d="M649 362C649.552 362 650 361.552 650 361C650 360.448 649.552 360 649 360C648.448 360 648 360.448 648 361C648 361.552 648.448 362 649 362Z" fill="#A6ACC4"/>
<path d="M325 74C325.552 74 326 73.5523 326 73C326 72.4477 325.552 72 325 72C324.448 72 324 72.4477 324 73C324 73.5523 324.448 74 325 74Z" fill="#A6ACC4"/>
<path d="M325 218C325.552 218 326 217.552 326 217C326 216.448 325.552 216 325 216C324.448 216 324 216.448 324 217C324 217.552 324.448 218 325 218Z" fill="#A6ACC4"/>
<path d="M325 362C325.552 362 326 361.552 326 361C326 360.448 325.552 360 325 360C324.448 360 324 360.448 324 361C324 361.552 324.448 362 325 362Z" fill="#A6ACC4"/>
<path d="M685 74C685.552 74 686 73.5523 686 73C686 72.4477 685.552 72 685 72C684.448 72 684 72.4477 684 73C684 73.5523 684.448 74 685 74Z" fill="#A6ACC4"/>
<path d="M685 218C685.552 218 686 217.552 686 217C686 216.448 685.552 216 685 216C684.448 216 684 216.448 684 217C684 217.552 684.448 218 685 218Z" fill="#A6ACC4"/>
<path d="M685 362C685.552 362 686 361.552 686 361C686 360.448 685.552 360 685 360C684.448 360 684 360.448 684 361C684 361.552 684.448 362 685 362Z" fill="#A6ACC4"/>
<path d="M145 110C145.552 110 146 109.552 146 109C146 108.448 145.552 108 145 108C144.448 108 144 108.448 144 109C144 109.552 144.448 110 145 110Z" fill="#A6ACC4"/>
<path d="M145 254C145.552 254 146 253.552 146 253C146 252.448 145.552 252 145 252C144.448 252 144 252.448 144 253C144 253.552 144.448 254 145 254Z" fill="#A6ACC4"/>
<path d="M145 398C145.552 398 146 397.552 146 397C146 396.448 145.552 396 145 396C144.448 396 144 396.448 144 397C144 397.552 144.448 398 145 398Z" fill="#A6ACC4"/>
<path d="M505 110C505.552 110 506 109.552 506 109C506 108.448 505.552 108 505 108C504.448 108 504 108.448 504 109C504 109.552 504.448 110 505 110Z" fill="#A6ACC4"/>
<path d="M505 254C505.552 254 506 253.552 506 253C506 252.448 505.552 252 505 252C504.448 252 504 252.448 504 253C504 253.552 504.448 254 505 254Z" fill="#A6ACC4"/>
<path d="M505 398C505.552 398 506 397.552 506 397C506 396.448 505.552 396 505 396C504.448 396 504 396.448 504 397C504 397.552 504.448 398 505 398Z" fill="#A6ACC4"/>
<path d="M181 110C181.552 110 182 109.552 182 109C182 108.448 181.552 108 181 108C180.448 108 180 108.448 180 109C180 109.552 180.448 110 181 110Z" fill="#A6ACC4"/>
<path d="M181 254C181.552 254 182 253.552 182 253C182 252.448 181.552 252 181 252C180.448 252 180 252.448 180 253C180 253.552 180.448 254 181 254Z" fill="#A6ACC4"/>
<path d="M181 398C181.552 398 182 397.552 182 397C182 396.448 181.552 396 181 396C180.448 396 180 396.448 180 397C180 397.552 180.448 398 181 398Z" fill="#A6ACC4"/>
<path d="M541 110C541.552 110 542 109.552 542 109C542 108.448 541.552 108 541 108C540.448 108 540 108.448 540 109C540 109.552 540.448 110 541 110Z" fill="#A6ACC4"/>
<path d="M541 254C541.552 254 542 253.552 542 253C542 252.448 541.552 252 541 252C540.448 252 540 252.448 540 253C540 253.552 540.448 254 541 254Z" fill="#A6ACC4"/>
<path d="M541 398C541.552 398 542 397.552 542 397C542 396.448 541.552 396 541 396C540.448 396 540 396.448 540 397C540 397.552 540.448 398 541 398Z" fill="#A6ACC4"/>
<path d="M217 110C217.552 110 218 109.552 218 109C218 108.448 217.552 108 217 108C216.448 108 216 108.448 216 109C216 109.552 216.448 110 217 110Z" fill="#A6ACC4"/>
<path d="M217 254C217.552 254 218 253.552 218 253C218 252.448 217.552 252 217 252C216.448 252 216 252.448 216 253C216 253.552 216.448 254 217 254Z" fill="#A6ACC4"/>
<path d="M217 398C217.552 398 218 397.552 218 397C218 396.448 217.552 396 217 396C216.448 396 216 396.448 216 397C216 397.552 216.448 398 217 398Z" fill="#A6ACC4"/>
<path d="M577 110C577.552 110 578 109.552 578 109C578 108.448 577.552 108 577 108C576.448 108 576 108.448 576 109C576 109.552 576.448 110 577 110Z" fill="#A6ACC4"/>
<path d="M577 254C577.552 254 578 253.552 578 253C578 252.448 577.552 252 577 252C576.448 252 576 252.448 576 253C576 253.552 576.448 254 577 254Z" fill="#A6ACC4"/>
<path d="M577 398C577.552 398 578 397.552 578 397C578 396.448 577.552 396 577 396C576.448 396 576 396.448 576 397C576 397.552 576.448 398 577 398Z" fill="#A6ACC4"/>
<path d="M253 110C253.552 110 254 109.552 254 109C254 108.448 253.552 108 253 108C252.448 108 252 108.448 252 109C252 109.552 252.448 110 253 110Z" fill="#A6ACC4"/>
<path d="M253 254C253.552 254 254 253.552 254 253C254 252.448 253.552 252 253 252C252.448 252 252 252.448 252 253C252 253.552 252.448 254 253 254Z" fill="#A6ACC4"/>
<path d="M253 398C253.552 398 254 397.552 254 397C254 396.448 253.552 396 253 396C252.448 396 252 396.448 252 397C252 397.552 252.448 398 253 398Z" fill="#A6ACC4"/>
<path d="M613 110C613.552 110 614 109.552 614 109C614 108.448 613.552 108 613 108C612.448 108 612 108.448 612 109C612 109.552 612.448 110 613 110Z" fill="#A6ACC4"/>
<path d="M613 254C613.552 254 614 253.552 614 253C614 252.448 613.552 252 613 252C612.448 252 612 252.448 612 253C612 253.552 612.448 254 613 254Z" fill="#A6ACC4"/>
<path d="M613 398C613.552 398 614 397.552 614 397C614 396.448 613.552 396 613 396C612.448 396 612 396.448 612 397C612 397.552 612.448 398 613 398Z" fill="#A6ACC4"/>
<path d="M289 110C289.552 110 290 109.552 290 109C290 108.448 289.552 108 289 108C288.448 108 288 108.448 288 109C288 109.552 288.448 110 289 110Z" fill="#A6ACC4"/>
<path d="M289 254C289.552 254 290 253.552 290 253C290 252.448 289.552 252 289 252C288.448 252 288 252.448 288 253C288 253.552 288.448 254 289 254Z" fill="#A6ACC4"/>
<path d="M289 398C289.552 398 290 397.552 290 397C290 396.448 289.552 396 289 396C288.448 396 288 396.448 288 397C288 397.552 288.448 398 289 398Z" fill="#A6ACC4"/>
<path d="M649 110C649.552 110 650 109.552 650 109C650 108.448 649.552 108 649 108C648.448 108 648 108.448 648 109C648 109.552 648.448 110 649 110Z" fill="#A6ACC4"/>
<path d="M649 254C649.552 254 650 253.552 650 253C650 252.448 649.552 252 649 252C648.448 252 648 252.448 648 253C648 253.552 648.448 254 649 254Z" fill="#A6ACC4"/>
<path d="M649 398C649.552 398 650 397.552 650 397C650 396.448 649.552 396 649 396C648.448 396 648 396.448 648 397C648 397.552 648.448 398 649 398Z" fill="#A6ACC4"/>
<path d="M325 110C325.552 110 326 109.552 326 109C326 108.448 325.552 108 325 108C324.448 108 324 108.448 324 109C324 109.552 324.448 110 325 110Z" fill="#A6ACC4"/>
<path d="M325 254C325.552 254 326 253.552 326 253C326 252.448 325.552 252 325 252C324.448 252 324 252.448 324 253C324 253.552 324.448 254 325 254Z" fill="#A6ACC4"/>
<path d="M325 398C325.552 398 326 397.552 326 397C326 396.448 325.552 396 325 396C324.448 396 324 396.448 324 397C324 397.552 324.448 398 325 398Z" fill="#A6ACC4"/>
<path d="M685 110C685.552 110 686 109.552 686 109C686 108.448 685.552 108 685 108C684.448 108 684 108.448 684 109C684 109.552 684.448 110 685 110Z" fill="#A6ACC4"/>
<path d="M685 254C685.552 254 686 253.552 686 253C686 252.448 685.552 252 685 252C684.448 252 684 252.448 684 253C684 253.552 684.448 254 685 254Z" fill="#A6ACC4"/>
<path d="M685 398C685.552 398 686 397.552 686 397C686 396.448 685.552 396 685 396C684.448 396 684 396.448 684 397C684 397.552 684.448 398 685 398Z" fill="#A6ACC4"/>
</svg>
