<svg width="15" height="15" viewBox="0 0 15 15" fill="none" xmlns="http://www.w3.org/2000/svg">
<path fill-rule="evenodd" clip-rule="evenodd" d="M8.79211 7.46227C9.60717 6.98028 10.1538 6.09244 10.1538 5.07692C10.1538 3.54752 8.91397 2.30769 7.38457 2.30769C5.85516 2.30769 4.61534 3.54752 4.61534 5.07692C4.61534 6.09244 5.16196 6.98028 5.97703 7.46227C3.7933 8.07585 2.19226 10.0817 2.19226 12.4615C2.19226 12.7802 2.45056 13.0385 2.76918 13.0385C3.08781 13.0385 3.34611 12.7802 3.34611 12.4615C3.34611 10.2312 5.15419 8.42308 7.38457 8.42308C9.61495 8.42308 11.423 10.2312 11.423 12.4615C11.423 12.7802 11.6813 13.0385 12 13.0385C12.3186 13.0385 12.5769 12.7802 12.5769 12.4615C12.5769 10.0817 10.9758 8.07585 8.79211 7.46227ZM8.99995 5.07692C8.99995 5.96908 8.27672 6.69231 7.38457 6.69231C6.49242 6.69231 5.76918 5.96908 5.76918 5.07692C5.76918 4.18477 6.49242 3.46154 7.38457 3.46154C8.27672 3.46154 8.99995 4.18477 8.99995 5.07692Z" fill="#4D74FF"/>
</svg>
