<svg width="52" height="52" viewBox="0 0 52 52" fill="none" xmlns="http://www.w3.org/2000/svg">
<rect width="52" height="52" rx="26" fill="#FFE8EC"/>
<path fill-rule="evenodd" clip-rule="evenodd" d="M26.938 14.1737L26 15L25.062 14.1737C25.2993 13.9044 25.641 13.75 26 13.75C26.359 13.75 26.7007 13.9044 26.938 14.1737ZM26 16.935C25.9111 17.0427 25.8173 17.1571 25.719 17.2776C24.9807 18.1837 23.999 19.434 23.0199 20.8158C22.0376 22.2022 21.0755 23.6966 20.3639 25.0939C19.6313 26.5325 19.25 27.7062 19.25 28.5C19.25 32.2279 22.2721 35.25 26 35.25C29.7279 35.25 32.75 32.2279 32.75 28.5C32.75 27.7062 32.3687 26.5325 31.6361 25.0939C30.9245 23.6966 29.9624 22.2022 28.9801 20.8158C28.001 19.434 27.0193 18.1837 26.281 17.2776C26.1827 17.1571 26.0889 17.0427 26 16.935ZM26 15C25.062 14.1737 25.062 14.1737 25.062 14.1737L25.0546 14.1821L25.0359 14.2036L24.9656 14.2843C24.9047 14.3546 24.8164 14.4571 24.7044 14.5886C24.4806 14.8515 24.1623 15.2304 23.781 15.6985C23.0193 16.6333 22.001 17.9296 20.9801 19.3705C19.9624 20.8068 18.9245 22.4113 18.1361 23.9594C17.3687 25.4663 16.75 27.0846 16.75 28.5C16.75 33.6086 20.8914 37.75 26 37.75C31.1086 37.75 35.25 33.6086 35.25 28.5C35.25 27.0846 34.6313 25.4663 33.8639 23.9594C33.0755 22.4113 32.0376 20.8068 31.0199 19.3705C29.999 17.9296 28.9807 16.6333 28.219 15.6985C27.8377 15.2304 27.5194 14.8515 27.2956 14.5886C27.1836 14.4571 27.0953 14.3546 27.0344 14.2843L26.9641 14.2036L26.9454 14.1821L26.9402 14.1763L26.9387 14.1746C26.9387 14.1746 26.938 14.1737 26 15Z" fill="#1E202C"/>
</svg>
