<svg width="15" height="15" viewBox="0 0 15 15" fill="none" xmlns="http://www.w3.org/2000/svg">
<path fill-rule="evenodd" clip-rule="evenodd" d="M6.35134 7.46267C6.9741 7.0494 7.38466 6.34187 7.38466 5.53846C7.38466 4.26396 6.35147 3.23077 5.07697 3.23077C3.80247 3.23077 2.76928 4.26396 2.76928 5.53846C2.76928 6.34187 3.17984 7.0494 3.8026 7.46267C2.06722 8.0047 0.807739 9.6245 0.807739 11.5385C0.807739 11.8571 1.06604 12.1154 1.38466 12.1154C1.70329 12.1154 1.96159 11.8571 1.96159 11.5385C1.96159 9.81788 3.35639 8.42307 5.07697 8.42307C6.79755 8.42307 8.19235 9.81788 8.19235 11.5385C8.19235 11.8571 8.45065 12.1154 8.76928 12.1154C9.0879 12.1154 9.3462 11.8571 9.3462 11.5385C9.3462 10.7707 9.14356 10.0503 8.78884 9.42786C9.21183 9.0923 9.76823 8.88461 10.3847 8.88461C11.7672 8.88461 12.8077 9.90875 12.8077 11.0769C12.8077 11.3955 13.066 11.6538 13.3847 11.6538C13.7033 11.6538 13.9616 11.3955 13.9616 11.0769C13.9616 9.63415 13.0032 8.44478 11.6909 7.96224C12.1576 7.6272 12.4616 7.07987 12.4616 6.46154C12.4616 5.44193 11.635 4.61538 10.6154 4.61538C9.59583 4.61538 8.76928 5.44193 8.76928 6.46154C8.76928 7.01903 9.01639 7.51881 9.40706 7.85732C8.91768 7.98706 8.46931 8.21208 8.08753 8.51144C7.60728 8.03378 7.01401 7.66965 6.35134 7.46267ZM6.23082 5.53846C6.23082 6.17571 5.71422 6.6923 5.07697 6.6923C4.43972 6.6923 3.92312 6.17571 3.92312 5.53846C3.92312 4.90121 4.43972 4.38461 5.07697 4.38461C5.71422 4.38461 6.23082 4.90121 6.23082 5.53846ZM10.6154 7.15384C10.9978 7.15384 11.3077 6.84389 11.3077 6.46154C11.3077 6.07918 10.9978 5.76923 10.6154 5.76923C10.2331 5.76923 9.92312 6.07918 9.92312 6.46154C9.92312 6.84389 10.2331 7.15384 10.6154 7.15384Z" fill="#7E51FF"/>
</svg>
