<svg width="52" height="52" viewBox="0 0 52 52" fill="none" xmlns="http://www.w3.org/2000/svg">
<rect width="52" height="52" rx="26" fill="#EEFFEE"/>
<path fill-rule="evenodd" clip-rule="evenodd" d="M30.6202 13.9147C30.2573 13.7073 29.8148 13.6951 29.441 13.882L22.0393 17.5828L15.6202 13.9147C15.2333 13.6936 14.758 13.6952 14.3726 13.9189C13.9872 14.1425 13.75 14.5544 13.75 15V33C13.75 33.4486 13.9904 33.8628 14.3798 34.0853L21.3798 38.0853C21.7427 38.2927 22.1852 38.3049 22.559 38.118L29.9607 34.4172L36.3798 38.0853C36.7667 38.3064 37.242 38.3048 37.6274 38.0811C38.0128 37.8575 38.25 37.4456 38.25 37V19C38.25 18.5514 38.0096 18.1372 37.6202 17.9147L30.6202 13.9147ZM31.25 17.154L35.75 19.7254V34.846L31.25 32.2746V17.154ZM28.75 17.0225L23.25 19.7725V34.9775L28.75 32.2275V17.0225ZM20.75 19.7254V34.846L16.25 32.2746V17.154L20.75 19.7254Z" fill="#1E202C"/>
</svg>
