<svg width="16" height="16" viewBox="0 0 16 16" fill="none" xmlns="http://www.w3.org/2000/svg">
<path d="M6.22478 9.98512H2.75998L2.10128 12.0574H0L3.57019 2H5.4014L8.99135 12.0574H6.89008L6.22478 9.98512ZM3.29354 8.30659H5.69123L4.4858 4.54198L3.29354 8.30659Z" fill="#1E202C"/>
<path d="M9.48538 8.26514C9.48538 7.11849 9.74448 6.19518 10.2627 5.49522C10.7852 4.79525 11.4879 4.44527 12.3705 4.44527C13.1522 4.44527 13.7604 4.72618 14.1951 5.28799L14.2742 4.58342H16V11.8087C16 12.4626 15.8573 13.0313 15.5718 13.5149C15.2908 13.9984 14.8934 14.3668 14.3796 14.6201C13.8658 14.8734 13.2642 15 12.5747 15C12.0521 15 11.5427 14.8895 11.0465 14.6684C10.5503 14.452 10.1748 14.1711 9.92013 13.8257L10.7633 12.61C11.2375 13.1672 11.8128 13.4458 12.4891 13.4458C12.9941 13.4458 13.3871 13.303 13.6682 13.0175C13.9492 12.7366 14.0897 12.336 14.0897 11.8156V11.415C13.6506 11.9354 13.0731 12.1955 12.3573 12.1955C11.501 12.1955 10.8072 11.8456 10.2758 11.1456C9.74887 10.441 9.48538 9.5085 9.48538 8.34803V8.26514ZM11.389 8.4102C11.389 9.08714 11.5186 9.61902 11.7777 10.0058C12.0368 10.3881 12.3925 10.5792 12.8448 10.5792C13.4245 10.5792 13.8394 10.3512 14.0897 9.89532V6.75239C13.835 6.29649 13.4245 6.06854 12.858 6.06854C12.4013 6.06854 12.0412 6.26426 11.7777 6.65569C11.5186 7.04711 11.389 7.63195 11.389 8.4102Z" fill="#1E202C"/>
</svg>
