<svg width="32" height="32" viewBox="0 0 32 32" fill="none" xmlns="http://www.w3.org/2000/svg">
<path d="M11.5502 25.5007C20.6045 25.5007 25.5583 17.9974 25.5583 11.4926C25.5583 11.2817 25.5536 11.066 25.5442 10.8551C26.5079 10.1582 27.3395 9.29499 28 8.30603C27.1025 8.70533 26.1496 8.96611 25.1739 9.07947C26.2013 8.46364 26.9705 7.4962 27.3391 6.3565C26.3726 6.92929 25.3156 7.33334 24.2134 7.55134C23.4708 6.76229 22.489 6.23985 21.4197 6.06478C20.3504 5.88972 19.2532 6.07178 18.2977 6.58283C17.3423 7.09387 16.5818 7.90544 16.1338 8.89204C15.6859 9.87865 15.5754 10.9853 15.8195 12.041C13.8625 11.9428 11.9479 11.4344 10.2 10.5488C8.45203 9.66323 6.90969 8.42017 5.67297 6.90025C5.0444 7.98398 4.85206 9.26638 5.13503 10.4868C5.418 11.7073 6.15506 12.7742 7.19641 13.4707C6.41463 13.4459 5.64998 13.2354 4.96563 12.8567V12.9176C4.96492 14.0549 5.3581 15.1573 6.07831 16.0375C6.79852 16.9177 7.80132 17.5213 8.91625 17.7457C8.19206 17.9439 7.43198 17.9727 6.69484 17.8301C7.00945 18.8082 7.62157 19.6636 8.44577 20.2771C9.26997 20.8905 10.2651 21.2313 11.2923 21.252C9.54842 22.6218 7.39417 23.3649 5.17656 23.3613C4.78329 23.3607 4.3904 23.3366 4 23.2892C6.25286 24.7345 8.87353 25.5021 11.5502 25.5007Z" fill="#1E202C"/>
</svg>
