<svg width="20" height="20" viewBox="0 0 20 20" fill="none" xmlns="http://www.w3.org/2000/svg">
<path fill-rule="evenodd" clip-rule="evenodd" d="M2.6689 10.5203C2.52061 10.3107 2.39956 10.1286 2.30717 9.98461C2.39154 9.84317 2.50183 9.66547 2.63746 9.46145C2.99949 8.91686 3.53702 8.19234 4.23828 7.47057C5.65273 6.01477 7.64913 4.65278 10.1562 4.65278C12.6569 4.65278 14.5718 6.0085 15.9037 7.45546C16.565 8.17395 17.0635 8.89551 17.3965 9.43816C17.5287 9.65364 17.634 9.83959 17.7124 9.98421C17.6261 10.1312 17.5099 10.3214 17.3649 10.5423C17.0066 11.0883 16.4774 11.8141 15.7937 12.5368C14.4095 14 12.4935 15.3472 10.1562 15.3472C7.812 15.3472 5.81515 13.9932 4.34844 12.5223C3.6248 11.7966 3.05639 11.0681 2.6689 10.5203ZM19.3059 9.68595C19.3061 9.68625 19.3062 9.68653 18.5938 10L19.2923 10.3421L19.2919 10.3428L19.291 10.3446L19.2883 10.3497L19.2795 10.3666C19.2721 10.3807 19.2617 10.4004 19.2481 10.4255C19.2211 10.4755 19.1818 10.5468 19.1305 10.6362C19.0281 10.8149 18.8773 11.0667 18.68 11.3674C18.2863 11.9672 17.7023 12.7692 16.9407 13.5743C15.4343 15.1667 13.1315 16.875 10.1562 16.875C7.188 16.875 4.80985 15.1735 3.22969 13.5888C2.42988 12.7867 1.80689 11.9875 1.38384 11.3894C1.17182 11.0897 1.00874 10.8387 0.897587 10.6607C0.841979 10.5717 0.799278 10.5008 0.769858 10.4511C0.755145 10.4262 0.743746 10.4066 0.735707 10.3926L0.726172 10.376L0.723303 10.371L0.721706 10.3681L1.40625 10C0.707479 9.65838 0.707614 9.65811 0.707761 9.65783L0.708116 9.65714L0.709043 9.65533L0.711767 9.65006L0.720695 9.63298C0.728191 9.61874 0.738774 9.59883 0.752427 9.57365C0.779729 9.52328 0.819339 9.45172 0.871115 9.36201C0.974609 9.18267 1.12707 8.93017 1.32739 8.62883C1.72708 8.02759 2.32235 7.22433 3.10547 6.41832C4.65977 4.81857 7.03837 3.125 10.1562 3.125C13.2806 3.125 15.5844 4.82483 17.0651 6.43343C17.81 7.24271 18.3662 8.04894 18.7363 8.65212C18.9219 8.95449 19.0619 9.20793 19.1567 9.38805C19.2041 9.47817 19.2402 9.5501 19.2651 9.60081C19.2776 9.62617 19.2872 9.64625 19.294 9.66066L19.3022 9.67798L19.3047 9.68337L19.3056 9.68523L19.3059 9.68595ZM0.721706 10.3681C0.597995 10.1482 0.592677 9.88288 0.707479 9.65838L1.40625 10C0.726457 10.3656 0.721595 10.3679 0.721704 10.3681L0.721706 10.3681ZM19.2923 10.3421C19.3972 10.1369 19.4025 9.89581 19.3062 9.68653L18.5938 10C19.2925 10.3416 19.2924 10.3419 19.2923 10.3421ZM12.3438 10C12.3438 11.1813 11.3644 12.1389 10.1562 12.1389C8.94813 12.1389 7.96875 11.1813 7.96875 10C7.96875 8.81872 8.94813 7.86111 10.1562 7.86111C11.3644 7.86111 12.3438 8.81872 12.3438 10ZM13.9062 10C13.9062 12.025 12.2273 13.6667 10.1562 13.6667C8.08518 13.6667 6.40625 12.025 6.40625 10C6.40625 7.97496 8.08518 6.33333 10.1562 6.33333C12.2273 6.33333 13.9062 7.97496 13.9062 10Z" fill="white"/>
</svg>
