<svg width="146" height="163" viewBox="0 0 146 163" fill="none" xmlns="http://www.w3.org/2000/svg">
<path fill-rule="evenodd" clip-rule="evenodd" d="M72.9996 163L0 126.8V36.5111L0.1386 36.5799L0 36.2L73 0L146 36.2L145.795 36.6128L146 36.5111V126.8L72.9996 163ZM118.26 39.3073L72.5134 16.1366L25.6195 39.2896L72.5493 61.891L118.26 39.3073ZM102.449 127.941L87.4529 135.737L101.679 101.32V101.021L87.4194 81.8249L103.955 73.2286L111.553 86.4701L111.821 86.3309L119.453 65.1718L135.185 56.9932L120.223 91.4558V91.7548L135.118 110.957L119.319 119.171L111.018 107.229L110.716 107.385L102.449 127.941ZM27.0884 63.842L11.716 56.1025V93.4547C11.716 106.683 20.9612 119.781 34.7746 126.735C48.588 133.69 57.8332 129.901 57.8332 116.673V79.321L42.4608 71.5815V107.044C42.4608 113.155 39.7416 115.124 34.7746 112.623C29.8075 110.122 27.0884 105.416 27.0884 99.3044V63.842Z" fill="#1B1D23"/>
</svg>
