<svg width="47" height="47" viewBox="0 0 47 47" fill="none" xmlns="http://www.w3.org/2000/svg">
<path d="M1 0H35C41.6274 0 47 5.37258 47 12V46L1 0Z" fill="#7E51FF"/>
<path d="M28.285 12.7492C28.2378 12.7135 28.2028 12.664 28.1849 12.6076C28.167 12.5511 28.167 12.4906 28.185 12.4342L28.232 12.2882C28.2494 12.2328 28.2831 12.184 28.3289 12.1483C28.3746 12.1126 28.4301 12.0916 28.488 12.0882L32.212 11.7882L33.634 8.35416C33.6577 8.29558 33.6992 8.24597 33.7527 8.21239C33.8062 8.17881 33.869 8.16298 33.932 8.16716H34.084C34.1433 8.16619 34.2014 8.18367 34.2503 8.21717C34.2992 8.25067 34.3365 8.29854 34.357 8.35416L35.791 11.7872L39.515 12.0872C39.5729 12.0906 39.6285 12.1116 39.6742 12.1473C39.7199 12.183 39.7537 12.2318 39.771 12.2872L39.818 12.4332C39.8374 12.4883 39.8395 12.548 39.8239 12.6043C39.8084 12.6606 39.776 12.7108 39.731 12.7482L36.921 15.1612L37.783 18.7802C37.7966 18.8369 37.7933 18.8963 37.7735 18.9512C37.7538 19.0061 37.7186 19.054 37.672 19.0892L37.503 19.1822C37.4549 19.2147 37.3981 19.2321 37.34 19.2321C37.2819 19.2321 37.2252 19.2147 37.177 19.1822L34.007 17.2602L30.82 19.2002C30.7719 19.2327 30.7151 19.2501 30.657 19.2501C30.5989 19.2501 30.5422 19.2327 30.494 19.2002L30.367 19.1132C30.3205 19.078 30.2852 19.0301 30.2655 18.9752C30.2458 18.9203 30.2425 18.8609 30.256 18.8042L31.095 15.1612L28.285 12.7492Z" fill="white"/>
</svg>
